<svg width="12" height="13" viewBox="0 0 12 13" fill="none" xmlns="http://www.w3.org/2000/svg">
<path d="M5.43549 2.35379H7.10734C7.10734 2.13202 7.01927 1.91933 6.8625 1.76251C6.70574 1.60569 6.49312 1.51759 6.27141 1.51759C6.04971 1.51759 5.83709 1.60569 5.68032 1.76251C5.52356 1.91933 5.43549 2.13202 5.43549 2.35379ZM4.59956 2.35379C4.59956 1.91024 4.7757 1.48486 5.08923 1.17123C5.40277 0.857595 5.82801 0.681396 6.27141 0.681396C6.71482 0.681396 7.14006 0.857595 7.45359 1.17123C7.76713 1.48486 7.94327 1.91024 7.94327 2.35379H11.287C11.3978 2.35379 11.5041 2.39784 11.5825 2.47625C11.6609 2.55466 11.7049 2.661 11.7049 2.77189C11.7049 2.88278 11.6609 2.98912 11.5825 3.06753C11.5041 3.14594 11.3978 3.18999 11.287 3.18999H10.8155L9.80822 10.5803C9.7399 11.0811 9.4925 11.5402 9.11181 11.8726C8.73112 12.205 8.24293 12.3881 7.73763 12.3882H4.8052C4.29989 12.3881 3.81171 12.205 3.43102 11.8726C3.05033 11.5402 2.80293 11.0811 2.73461 10.5803L1.72732 3.18999H1.25585C1.145 3.18999 1.03869 3.14594 0.960309 3.06753C0.881926 2.98912 0.837891 2.88278 0.837891 2.77189C0.837891 2.661 0.881926 2.55466 0.960309 2.47625C1.03869 2.39784 1.145 2.35379 1.25585 2.35379H4.59956ZM5.43549 5.28048C5.43549 5.16959 5.39145 5.06325 5.31307 4.98484C5.23468 4.90643 5.12837 4.86238 5.01752 4.86238C4.90667 4.86238 4.80036 4.90643 4.72198 4.98484C4.6436 5.06325 4.59956 5.16959 4.59956 5.28048V9.46147C4.59956 9.57235 4.6436 9.6787 4.72198 9.75711C4.80036 9.83552 4.90667 9.87956 5.01752 9.87956C5.12837 9.87956 5.23468 9.83552 5.31307 9.75711C5.39145 9.6787 5.43549 9.57235 5.43549 9.46147V5.28048ZM7.5253 4.86238C7.63615 4.86238 7.74247 4.90643 7.82085 4.98484C7.89923 5.06325 7.94327 5.16959 7.94327 5.28048V9.46147C7.94327 9.57235 7.89923 9.6787 7.82085 9.75711C7.74247 9.83552 7.63615 9.87956 7.5253 9.87956C7.41445 9.87956 7.30814 9.83552 7.22976 9.75711C7.15138 9.6787 7.10734 9.57235 7.10734 9.46147V5.28048C7.10734 5.16959 7.15138 5.06325 7.22976 4.98484C7.30814 4.90643 7.41445 4.86238 7.5253 4.86238ZM3.56301 10.4674C3.60404 10.7678 3.75247 11.0432 3.98084 11.2426C4.20922 11.442 4.50207 11.5519 4.8052 11.552H7.73763C8.0409 11.5521 8.33396 11.4423 8.5625 11.2429C8.79105 11.0435 8.93961 10.768 8.98065 10.4674L9.97206 3.18999H2.57077L3.56301 10.4674Z" fill="black"/>
</svg>
