<svg width="11" height="12" viewBox="0 0 11 12" fill="none" xmlns="http://www.w3.org/2000/svg">
<path d="M5.36553 7.68227C6.24644 7.68227 6.96055 6.96815 6.96055 6.08725C6.96055 5.20634 6.24644 4.49223 5.36553 4.49223C4.48462 4.49223 3.77051 5.20634 3.77051 6.08725C3.77051 6.96815 4.48462 7.68227 5.36553 7.68227Z" stroke="black" stroke-width="0.708899"/>
<path d="M6.30464 0.851345C6.10951 0.770531 5.86175 0.770531 5.36623 0.770531C4.87071 0.770531 4.62295 0.770531 4.42783 0.851345C4.29873 0.904785 4.18143 0.983145 4.08263 1.08194C3.98383 1.18074 3.90547 1.29805 3.85203 1.42715C3.80311 1.54571 3.78344 1.68448 3.776 1.88598C3.77254 2.03162 3.73219 2.17401 3.65873 2.29981C3.58528 2.42562 3.48111 2.53074 3.35598 2.60534C3.2288 2.67646 3.08567 2.71416 2.93996 2.7149C2.79425 2.71564 2.65074 2.67941 2.52284 2.60959C2.3442 2.51495 2.215 2.46285 2.08687 2.44584C1.80738 2.40908 1.52473 2.48481 1.30106 2.65638C1.13411 2.78557 1.0097 2.99984 0.761939 3.4289C0.514179 3.85796 0.389768 4.07223 0.362652 4.28224C0.344382 4.42071 0.353571 4.56143 0.389697 4.69635C0.425822 4.83128 0.488176 4.95776 0.573195 5.06858C0.651883 5.17066 0.761939 5.25626 0.932607 5.36366C1.18409 5.52157 1.34572 5.7906 1.34572 6.08727C1.34572 6.38394 1.18409 6.65297 0.932607 6.81035C0.761939 6.91828 0.651351 7.00388 0.573195 7.10596C0.488176 7.21678 0.425822 7.34326 0.389697 7.47818C0.353571 7.61311 0.344382 7.75383 0.362652 7.8923C0.390299 8.10178 0.514179 8.31658 0.761408 8.74564C1.0097 9.1747 1.13358 9.38896 1.30106 9.51816C1.41188 9.60318 1.53836 9.66553 1.67328 9.70166C1.80821 9.73778 1.94893 9.74697 2.0874 9.7287C2.215 9.71169 2.3442 9.65959 2.52284 9.56495C2.65074 9.49513 2.79425 9.45889 2.93996 9.45964C3.08567 9.46038 3.2288 9.49808 3.35598 9.5692C3.61277 9.71807 3.76536 9.99188 3.776 10.2886C3.78344 10.4906 3.80258 10.6288 3.85203 10.7474C3.90547 10.8765 3.98383 10.9938 4.08263 11.0926C4.18143 11.1914 4.29873 11.2698 4.42783 11.3232C4.62295 11.404 4.87071 11.404 5.36623 11.404C5.86175 11.404 6.10951 11.404 6.30464 11.3232C6.43374 11.2698 6.55104 11.1914 6.64984 11.0926C6.74864 10.9938 6.827 10.8765 6.88044 10.7474C6.92936 10.6288 6.94903 10.4906 6.95647 10.2886C6.9671 9.99188 7.1197 9.71754 7.37649 9.5692C7.50367 9.49808 7.6468 9.46038 7.79251 9.45964C7.93822 9.45889 8.08173 9.49513 8.20963 9.56495C8.38827 9.65959 8.51747 9.71169 8.64507 9.7287C8.78354 9.74697 8.92426 9.73778 9.05919 9.70166C9.19411 9.66553 9.32059 9.60318 9.43141 9.51816C9.59889 9.38949 9.72277 9.1747 9.97053 8.74564C10.2183 8.31658 10.3427 8.10231 10.3698 7.8923C10.3881 7.75383 10.3789 7.61311 10.3428 7.47818C10.3066 7.34326 10.2443 7.21678 10.1593 7.10596C10.0806 7.00388 9.97053 6.91828 9.79986 6.81088C9.67541 6.73506 9.57223 6.62891 9.49998 6.50235C9.42773 6.3758 9.38877 6.23298 9.38675 6.08727C9.38675 5.7906 9.54838 5.52157 9.79986 5.36419C9.97053 5.25626 10.0811 5.17066 10.1593 5.06858C10.2443 4.95776 10.3066 4.83128 10.3428 4.69635C10.3789 4.56143 10.3881 4.42071 10.3698 4.28224C10.3422 4.07276 10.2183 3.85796 9.97106 3.4289C9.72277 2.99984 9.59889 2.78557 9.43141 2.65638C9.32059 2.57136 9.19411 2.509 9.05919 2.47288C8.92426 2.43675 8.78354 2.42756 8.64507 2.44584C8.51747 2.46285 8.38827 2.51495 8.20909 2.60959C8.08127 2.67932 7.93785 2.7155 7.79225 2.71475C7.64664 2.71401 7.5036 2.67637 7.37649 2.60534C7.25136 2.53074 7.14719 2.42562 7.07374 2.29981C7.00028 2.17401 6.95993 2.03162 6.95647 1.88598C6.94903 1.68395 6.92989 1.54571 6.88044 1.42715C6.827 1.29805 6.74864 1.18074 6.64984 1.08194C6.55104 0.983145 6.43374 0.904785 6.30464 0.851345Z" stroke="black" stroke-width="0.708899"/>
</svg>
